<svg width="31" height="30" viewBox="0 0 31 30" fill="none" xmlns="http://www.w3.org/2000/svg">
<g clip-path="url(#clip0_273_403)">
<path d="M31 14.7572C31 6.84348 24.0603 0.42804 15.5 0.42804C6.93966 0.42804 0 6.84348 0 14.7572C0 21.477 5.00464 27.1158 11.7558 28.6645V19.1362H8.55972V14.7572H11.7558V12.8703C11.7558 7.99325 14.1434 5.73269 19.3229 5.73269C20.305 5.73269 21.9995 5.91094 22.6926 6.08862V10.0578C22.3268 10.0223 21.6913 10.0045 20.9021 10.0045C18.3607 10.0045 17.3786 10.8946 17.3786 13.2085V14.7572H22.4415L21.5717 19.1362H17.3786V28.9814C25.0536 28.1245 31.0006 22.0834 31.0006 14.7572H31Z" fill="#0866FF"/>
<path d="M21.571 19.1362L22.4409 14.7572H17.378V13.2085C17.378 10.8946 18.36 10.0045 20.9014 10.0045C21.6907 10.0045 22.3262 10.0223 22.692 10.0578V6.08863C21.9988 5.91038 20.3044 5.7327 19.3223 5.7327C14.1428 5.7327 11.7552 7.99326 11.7552 12.8703V14.7572H8.55908V19.1362H11.7552V28.6645C12.9543 28.9396 14.2085 29.0863 15.4994 29.0863C16.1349 29.0863 16.7617 29.0502 17.3773 28.9814V19.1362H21.5704H21.571Z" fill="white"/>
</g>
<defs>
<clipPath id="clip0_273_403">
<rect width="31" height="28.6583" fill="white" transform="translate(0 0.42804)"/>
</clipPath>
</defs>
</svg>
