<svg width="32" height="30" viewBox="0 0 32 30" fill="none" xmlns="http://www.w3.org/2000/svg">
<path d="M26.4617 7.31362C26.4617 6.33197 25.5998 5.53934 24.5402 5.53934C23.4806 5.53934 22.6179 6.33197 22.6179 7.31362C22.6179 8.29166 23.4806 9.08429 24.5402 9.08429C25.5998 9.08429 26.4617 8.29166 26.4617 7.31362Z" fill="url(#paint0_linear_273_230)"/>
<path d="M29.0221 21.1635C28.9509 22.6035 28.69 23.3859 28.4733 23.9055C28.1823 24.5945 27.8352 25.0872 27.2722 25.6039C26.7155 26.1207 26.1818 26.4404 25.4353 26.706C24.8724 26.9089 24.0215 27.1505 22.4614 27.2192C20.7748 27.2877 20.2751 27.3024 15.998 27.3024C11.7249 27.3024 11.2212 27.2877 9.53458 27.2192C7.97451 27.1505 7.12764 26.9089 6.56461 26.706C5.81422 26.4404 5.28446 26.1207 4.72462 25.6039C4.16081 25.0872 3.8137 24.5945 3.52667 23.9055C3.30997 23.3859 3.04511 22.6035 2.97786 21.1635C2.89567 19.6067 2.8806 19.1381 2.8806 15.1983C2.8806 11.2505 2.89567 10.7855 2.97786 9.22869C3.04511 7.78871 3.30997 7.00702 3.52667 6.48295C3.8137 5.7947 4.16081 5.30494 4.72462 4.7882C5.28446 4.27222 5.81422 3.95178 6.56461 3.68322C7.12764 3.47959 7.97451 3.24164 9.53458 3.17305C11.2212 3.10441 11.7249 3.08689 15.998 3.08689C20.2751 3.08689 20.7748 3.10441 22.4614 3.17305C24.0215 3.24164 24.8724 3.47959 25.4353 3.68322C26.1818 3.95178 26.7155 4.27222 27.2722 4.7882C27.8352 5.30494 28.1823 5.7947 28.4733 6.48295C28.69 7.00702 28.9509 7.78871 29.0221 9.22869C29.1004 10.7855 29.1193 11.2505 29.1193 15.1983C29.1193 19.1381 29.1004 19.6067 29.0221 21.1635ZM31.9027 9.10756C31.8245 7.53395 31.5556 6.45886 31.1563 5.52248C30.7499 4.55101 30.205 3.72773 29.3131 2.90444C28.4251 2.08482 27.5332 1.58193 26.4807 1.20242C25.4623 0.837467 24.3014 0.586374 22.5958 0.517784C20.8902 0.44186 20.3455 0.428009 15.998 0.428009C11.6545 0.428009 11.1058 0.44186 9.4002 0.517784C7.69851 0.586374 6.53851 0.837467 5.51533 1.20242C4.46682 1.58193 3.57488 2.08482 2.68691 2.90444C1.79497 3.72773 1.25014 4.55101 0.839753 5.52248C0.44437 6.45886 0.175542 7.53395 0.0932862 9.10756C0.0189775 10.6819 0 11.1855 0 15.1983C0 19.2074 0.0189775 19.7103 0.0932862 21.2846C0.175542 22.8553 0.44437 23.9296 0.839753 24.8704C1.25014 25.8382 1.79497 26.6652 2.68691 27.4848C3.57488 28.3044 4.46682 28.811 5.51533 29.1898C6.53851 29.5547 7.69851 29.8029 9.4002 29.8751C11.1058 29.9474 11.6545 29.9649 15.998 29.9649C20.3455 29.9649 20.8902 29.9474 22.5958 29.8751C24.3014 29.8029 25.4623 29.5547 26.4807 29.1898C27.5332 28.811 28.4251 28.3044 29.3131 27.4848C30.205 26.6652 30.7499 25.8382 31.1563 24.8704C31.5556 23.9296 31.8245 22.8553 31.9027 21.2846C31.981 19.7103 32 19.2074 32 15.1983C32 11.1855 31.981 10.6819 31.9027 9.10756Z" fill="url(#paint1_linear_273_230)"/>
<path d="M15.9982 20.1168C13.0543 20.1168 10.6655 17.9155 10.6655 15.1983C10.6655 12.4766 13.0543 10.2724 15.9982 10.2724C18.9429 10.2724 21.3348 12.4766 21.3348 15.1983C21.3348 17.9155 18.9429 20.1168 15.9982 20.1168ZM15.9982 7.60989C11.4602 7.60989 7.78491 11.0096 7.78491 15.1983C7.78491 19.3833 11.4602 22.7794 15.9982 22.7794C20.5362 22.7794 24.2154 19.3833 24.2154 15.1983C24.2154 11.0096 20.5362 7.60989 15.9982 7.60989Z" fill="url(#paint2_linear_273_230)"/>
<defs>
<linearGradient id="paint0_linear_273_230" x1="0.288587" y1="29.6596" x2="27.0132" y2="0.706504" gradientUnits="userSpaceOnUse">
<stop stop-color="#FFD521"/>
<stop offset="0.05" stop-color="#FFD521"/>
<stop offset="0.501119" stop-color="#F50000"/>
<stop offset="0.95" stop-color="#B900B4"/>
<stop offset="0.950079" stop-color="#B900B4"/>
<stop offset="1" stop-color="#B900B4"/>
</linearGradient>
<linearGradient id="paint1_linear_273_230" x1="0.288636" y1="29.6963" x2="27.0352" y2="0.719358" gradientUnits="userSpaceOnUse">
<stop stop-color="#FFD521"/>
<stop offset="0.05" stop-color="#FFD521"/>
<stop offset="0.501119" stop-color="#F50000"/>
<stop offset="0.95" stop-color="#B900B4"/>
<stop offset="0.950079" stop-color="#B900B4"/>
<stop offset="1" stop-color="#B900B4"/>
</linearGradient>
<linearGradient id="paint2_linear_273_230" x1="0.296344" y1="29.697" x2="27.0364" y2="0.727047" gradientUnits="userSpaceOnUse">
<stop stop-color="#FFD521"/>
<stop offset="0.05" stop-color="#FFD521"/>
<stop offset="0.501119" stop-color="#F50000"/>
<stop offset="0.95" stop-color="#B900B4"/>
<stop offset="0.950079" stop-color="#B900B4"/>
<stop offset="1" stop-color="#B900B4"/>
</linearGradient>
</defs>
</svg>
